<svg width="33" height="13" viewBox="0 0 33 13" fill="none" xmlns="http://www.w3.org/2000/svg">
<path d="M8.53615 9.92472L9.71265 10.1789C11.6967 10.6068 13.9532 10.8314 16.25 10.8297C18.8212 10.8297 21.3346 10.5477 23.4724 10.0195C25.6103 9.49131 27.2765 8.74054 28.2605 7.86215C29.2444 6.98377 29.5018 6.01722 29.0002 5.08473C28.4986 4.15225 27.2605 3.2957 25.4424 2.62342C23.6243 1.95113 21.3079 1.4933 18.7862 1.30782C16.2644 1.12233 13.6506 1.21753 11.2751 1.58137C8.8997 1.94521 6.86937 2.56134 5.44092 3.35187C4.01246 4.14239 3.25002 5.0718 3.25002 6.02255C3.25002 6.88543 3.86265 7.71285 5.01152 8.44053L5.69727 8.87557L4.63615 10.3183L8.53615 9.92472ZM0.00652174 12.0314L2.20352 9.04622C0.755871 8.12858 -0.00469728 7.08492 2.18274e-05 6.02255C2.18274e-05 2.70385 7.27515 0.0136719 16.25 0.0136719C25.2249 0.0136719 32.5 2.70385 32.5 6.02255C32.5 9.34126 25.2249 12.0314 16.25 12.0314C13.3783 12.0332 10.5571 11.7521 8.07627 11.2172L0.00652174 12.0314ZM10.3854 3.20319C10.6031 3.19718 10.8225 3.19718 11.0403 3.20078C11.128 3.20319 11.2158 3.20679 11.3035 3.2104C11.5619 3.22121 11.8463 3.2795 11.9421 3.36002C12.4264 3.76622 12.8976 4.17542 13.3526 4.58583C13.4534 4.67717 13.3933 4.79434 13.2015 4.90851C13.0696 4.98571 12.927 5.06032 12.7741 5.13204C12.5905 5.21917 12.1956 5.379 12.1956 5.379C12.1956 5.379 12.0348 5.44991 12.0965 5.53824C12.1193 5.57189 12.194 5.62056 12.2623 5.66142L12.3581 5.71851C12.7741 5.97508 13.3331 6.23527 14.0156 6.48043C14.2106 6.55013 14.4008 6.62164 14.6055 6.68834C15.366 6.93651 16.2273 7.139 17.1568 7.28923L17.1649 7.29043C17.303 7.31266 17.3729 7.32468 17.5744 7.35653C17.6751 7.37215 17.7791 7.38597 17.8848 7.39618C17.9939 7.40646 18.1089 7.40453 18.215 7.39062C18.3212 7.37671 18.4138 7.35146 18.4811 7.31807C19.6576 6.79109 19.7649 6.75684 19.7746 6.75684V6.75804C19.8564 6.72985 19.9535 6.70846 20.0594 6.69529C20.1654 6.68213 20.2777 6.67751 20.3889 6.68173C20.4864 6.68413 20.5855 6.69074 20.6765 6.70576C21.5394 6.85178 22.9515 7.07952 22.9515 7.07952L23.8973 7.23635C24.0565 7.26459 24.2011 7.33129 24.206 7.39558C24.2125 7.43584 24.2223 7.50074 24.1849 7.61972C24.1329 7.77535 24.0061 7.96222 23.8794 8.06017C23.7926 8.12701 23.6774 8.18827 23.5381 8.24163C23.3742 8.3053 23.1947 8.36323 23.0019 8.41469C22.9352 8.43324 22.8675 8.45127 22.7988 8.46877C22.5967 8.51619 22.389 8.5603 22.1764 8.60097C21.758 8.68314 21.2959 8.73032 20.8228 8.73917C20.5221 8.74518 20.2215 8.75359 19.9193 8.74758C19.9063 8.74758 18.9963 8.6953 18.9963 8.6953C16.6859 8.4706 14.5493 8.04963 12.7563 7.46589C12.389 7.34631 12.0494 7.21772 11.7016 7.08973C10.2554 6.55795 9.1634 5.9841 8.5004 5.4421C8.16105 5.17608 7.97774 4.88652 7.96252 4.59244C7.95582 4.22761 8.27834 3.87238 8.87902 3.58295C8.99765 3.52646 9.10977 3.46758 9.30315 3.39968C9.50952 3.32757 9.63952 3.28911 9.7809 3.26267C9.96887 3.22784 10.1739 3.2074 10.3838 3.20259L10.3854 3.20319Z" fill="white"/>
</svg>
