<svg width="16" height="14" viewBox="0 0 16 14" fill="none" xmlns="http://www.w3.org/2000/svg">
<path d="M14.9243 6.4152C15.1402 7.49936 14.8915 8.60661 14.2134 9.57947C13.5352 10.5523 12.4623 11.3412 11.1471 11.834C9.83197 12.3267 8.34157 12.4983 6.88791 12.3241C5.43426 12.15 4.09137 11.6391 3.05026 10.8641C2.00915 10.0891 1.32282 9.08947 1.08891 8.00737C0.854997 6.92527 1.08541 5.81582 1.74736 4.83682C2.40932 3.85782 3.46912 3.05912 4.77601 2.55433C6.08291 2.04953 7.57035 1.86435 9.02678 2.02512C10.5124 2.18911 11.8878 2.70443 12.9497 3.49496C14.0117 4.28549 14.704 5.30931 14.9243 6.4152Z" stroke="white" stroke-width="2" stroke-linecap="round" stroke-linejoin="round"/>
</svg>
