<svg width="15" height="13" viewBox="0 0 15 13" fill="none" xmlns="http://www.w3.org/2000/svg">
<path d="M13.9297 5.69324C14.1302 6.83758 13.8992 8.00629 13.2695 9.03313C12.6399 10.06 11.6436 10.8927 10.4223 11.4128C9.20111 11.9329 7.81717 12.1139 6.46735 11.9301C5.11752 11.7464 3.87056 11.2071 2.90381 10.3891C1.93706 9.57107 1.29976 8.51594 1.08256 7.37378C0.865355 6.23163 1.07931 5.0606 1.69398 4.02726C2.30865 2.99392 3.29275 2.15089 4.5063 1.61808C5.71984 1.08527 7.10104 0.889806 8.45344 1.0595C9.83294 1.23259 11.1101 1.77651 12.0962 2.61092C13.0823 3.44532 13.7251 4.52597 13.9297 5.69324Z" stroke="white" stroke-width="2" stroke-linecap="round" stroke-linejoin="round"/>
</svg>
