<svg width="33" height="29" viewBox="0 0 33 29" fill="none" xmlns="http://www.w3.org/2000/svg">
<path d="M8.53615 23.3665L9.71265 23.9657C11.6967 24.9745 13.9532 25.5041 16.25 25.5C18.8212 25.5 21.3346 24.8353 23.4724 23.59C25.6103 22.3447 27.2765 20.5746 28.2605 18.5037C29.2444 16.4328 29.5018 14.1541 29.0002 11.9556C28.4986 9.75719 27.2605 7.73778 25.4424 6.15279C23.6243 4.56779 21.3079 3.4884 18.7862 3.0511C16.2644 2.6138 13.6506 2.83824 11.2751 3.69603C8.8997 4.55383 6.86937 6.00645 5.44092 7.8702C4.01246 9.73396 3.25002 11.9251 3.25002 14.1667C3.25002 16.201 3.86265 18.1518 5.01152 19.8673L5.69727 20.893L4.63615 24.2944L8.53615 23.3665ZM0.00652174 28.3333L2.20352 21.2953C0.755871 19.1319 -0.00469728 16.6713 2.18274e-05 14.1667C2.18274e-05 6.34242 7.27515 0 16.25 0C25.2249 0 32.5 6.34242 32.5 14.1667C32.5 21.9909 25.2249 28.3333 16.25 28.3333C13.3783 28.3374 10.5571 27.6748 8.07627 26.4137L0.00652174 28.3333ZM10.3854 7.51967C10.6031 7.5055 10.8225 7.5055 11.0403 7.514C11.128 7.51967 11.2158 7.52817 11.3035 7.53667C11.5619 7.56217 11.8463 7.69958 11.9421 7.88942C12.4264 8.84708 12.8976 9.81183 13.3526 10.7794C13.4534 10.9948 13.3933 11.271 13.2015 11.5402C13.0696 11.7222 12.927 11.8981 12.7741 12.0672C12.5905 12.2726 12.1956 12.6494 12.1956 12.6494C12.1956 12.6494 12.0348 12.8166 12.0965 13.0248C12.1193 13.1042 12.194 13.2189 12.2623 13.3152L12.3581 13.4498C12.7741 14.0548 13.3331 14.6682 14.0156 15.2462C14.2106 15.4105 14.4008 15.5791 14.6055 15.7363C15.366 16.3214 16.2273 16.7988 17.1568 17.153L17.1649 17.1558C17.303 17.2082 17.3729 17.2366 17.5744 17.3117C17.6751 17.3485 17.7791 17.3811 17.8848 17.4052C17.9939 17.4294 18.1089 17.4248 18.215 17.392C18.3212 17.3593 18.4138 17.2997 18.4811 17.221C19.6576 15.9786 19.7649 15.8978 19.7746 15.8978V15.9007C19.8564 15.8342 19.9535 15.7838 20.0594 15.7527C20.1654 15.7217 20.2777 15.7108 20.3889 15.7207C20.4864 15.7264 20.5855 15.742 20.6765 15.7774C21.5394 16.1217 22.9515 16.6586 22.9515 16.6586L23.8973 17.0283C24.0565 17.0949 24.2011 17.2522 24.206 17.4037C24.2125 17.4987 24.2223 17.6517 24.1849 17.9322C24.1329 18.2991 24.0061 18.7397 23.8794 18.9706C23.7926 19.1282 23.6774 19.2726 23.5381 19.3984C23.3742 19.5485 23.1947 19.6851 23.0019 19.8064C22.9352 19.8501 22.8675 19.8926 22.7988 19.9339C22.5967 20.0457 22.389 20.1497 22.1764 20.2456C21.758 20.4393 21.2959 20.5506 20.8228 20.5714C20.5221 20.5856 20.2215 20.6054 19.9193 20.5912C19.9063 20.5912 18.9963 20.468 18.9963 20.468C16.6859 19.9382 14.5493 18.9457 12.7563 17.5695C12.389 17.2876 12.0494 16.9844 11.7016 16.6827C10.2554 15.4289 9.1634 14.076 8.5004 12.7982C8.16105 12.171 7.97774 11.4883 7.96252 10.795C7.95582 9.93487 8.27834 9.09736 8.87902 8.415C8.99765 8.28183 9.10977 8.143 9.30315 7.98292C9.50952 7.81292 9.63952 7.72225 9.7809 7.65992C9.96887 7.57779 10.1739 7.52961 10.3838 7.51825L10.3854 7.51967Z" fill="black"/>
</svg>
