<svg width="16" height="8" viewBox="0 0 16 8" fill="none" xmlns="http://www.w3.org/2000/svg">
<path d="M14.9243 3.53833C15.1402 3.99819 14.8915 4.46784 14.2134 4.88048C13.5352 5.29312 12.4623 5.62774 11.1471 5.83675C9.83197 6.04575 8.34157 6.1185 6.88791 6.04465C5.43426 5.97079 4.09137 5.75409 3.05026 5.42537C2.00915 5.09665 1.32282 4.67264 1.08891 4.21366C0.854997 3.75469 1.08541 3.2841 1.74736 2.86885C2.40932 2.4536 3.46912 2.11483 4.77601 1.90072C6.08291 1.68661 7.57035 1.60806 9.02678 1.67625C10.5124 1.74581 11.8878 1.96439 12.9497 2.29969C14.0117 2.635 14.704 3.06926 14.9243 3.53833Z" stroke="white" stroke-width="2" stroke-linecap="round" stroke-linejoin="round"/>
</svg>
