<svg width="33" height="13" viewBox="0 0 33 13" fill="none" xmlns="http://www.w3.org/2000/svg">
<path d="M8.66747 10.398L9.86207 10.6491C11.8766 11.072 14.1679 11.294 16.5 11.2923C19.1107 11.2923 21.6628 11.0136 23.8335 10.4916C26.0043 9.96964 27.6961 9.22771 28.6952 8.35966C29.6943 7.49161 29.9557 6.53643 29.4464 5.61492C28.937 4.6934 27.6799 3.84693 25.8338 3.18256C23.9878 2.51818 21.6357 2.06573 19.0752 1.88243C16.5147 1.69913 13.8606 1.79321 11.4486 2.15277C9.03661 2.51232 6.97505 3.12121 5.52462 3.90244C4.07419 4.68366 3.30002 5.60213 3.30002 6.5417C3.30002 7.39443 3.92207 8.21211 5.08862 8.93123L5.78492 9.36115L4.70747 10.7869L8.66747 10.398ZM0.00662207 12.4799L2.23742 9.5298C0.767499 8.62295 -0.00476954 7.59157 2.21632e-05 6.5417C2.21632e-05 3.26204 7.38707 0.603516 16.5 0.603516C25.613 0.603516 33 3.26204 33 6.5417C33 9.82136 25.613 12.4799 16.5 12.4799C13.5841 12.4816 10.7195 12.2039 8.20052 11.6753L0.00662207 12.4799ZM10.5452 3.7555C10.7663 3.74957 10.989 3.74957 11.2101 3.75313C11.2992 3.7555 11.3883 3.75907 11.4774 3.76263C11.7398 3.77332 12.0285 3.83092 12.1259 3.91049C12.6176 4.31191 13.0961 4.7163 13.5581 5.12188C13.6604 5.21214 13.5993 5.32794 13.4046 5.44076C13.2707 5.51705 13.1259 5.59079 12.9707 5.66166C12.7842 5.74777 12.3833 5.90572 12.3833 5.90572C12.3833 5.90572 12.2199 5.97579 12.2826 6.06308C12.3057 6.09634 12.3816 6.14444 12.4509 6.18482L12.5483 6.24123C12.9707 6.49479 13.5383 6.75191 14.2313 6.99419C14.4293 7.06307 14.6223 7.13374 14.8302 7.19965C15.6024 7.4449 16.4769 7.64502 17.4207 7.79347L17.429 7.79466C17.5692 7.81663 17.6402 7.82851 17.8448 7.85998C17.9471 7.87542 18.0527 7.88908 18.1599 7.89917C18.2707 7.90933 18.3875 7.90742 18.4953 7.89367C18.6031 7.87993 18.6971 7.85498 18.7655 7.82197C19.9601 7.3012 20.069 7.26735 20.0789 7.26735V7.26854C20.1618 7.24068 20.2604 7.21953 20.368 7.20653C20.4756 7.19352 20.5897 7.18895 20.7026 7.19312C20.8016 7.1955 20.9022 7.20203 20.9946 7.21687C21.8708 7.36117 23.3046 7.58623 23.3046 7.58623L24.2649 7.74122C24.4266 7.76912 24.5735 7.83504 24.5784 7.89858C24.585 7.93836 24.5949 8.0025 24.557 8.12007C24.5042 8.27387 24.3755 8.45855 24.2468 8.55534C24.1586 8.6214 24.0416 8.68194 23.9003 8.73467C23.7338 8.79759 23.5515 8.85484 23.3558 8.90569C23.288 8.92402 23.2193 8.94184 23.1495 8.95914C22.9443 9.006 22.7334 9.04959 22.5176 9.08978C22.0927 9.17099 21.6235 9.21761 21.1431 9.22636C20.8379 9.23229 20.5326 9.24061 20.2257 9.23467C20.2125 9.23467 19.2885 9.18301 19.2885 9.18301C16.9426 8.96094 14.7731 8.54493 12.9525 7.96805C12.5796 7.84988 12.2348 7.72281 11.8817 7.59632C10.4132 7.07079 9.30437 6.5037 8.63117 5.96807C8.2866 5.70518 8.10047 5.41903 8.08502 5.12841C8.07821 4.76788 8.40569 4.41682 9.01562 4.1308C9.13607 4.07498 9.24992 4.01679 9.44627 3.94968C9.65582 3.87843 9.78782 3.84042 9.93137 3.81429C10.1222 3.77987 10.3304 3.75967 10.5435 3.75491L10.5452 3.7555Z" fill="white"/>
</svg>
