<svg width="33" height="29" viewBox="0 0 33 29" fill="none" xmlns="http://www.w3.org/2000/svg">
<path d="M8.53615 23.7571L9.71265 24.3564C11.6967 25.3651 13.9532 25.8947 16.25 25.8906C18.8212 25.8906 21.3346 25.2259 23.4724 23.9806C25.6103 22.7353 27.2765 20.9653 28.2605 18.8944C29.2444 16.8235 29.5018 14.5447 29.0002 12.3463C28.4986 10.1478 27.2605 8.12841 25.4424 6.54341C23.6243 4.95842 21.3079 3.87902 18.7862 3.44173C16.2644 3.00443 13.6506 3.22886 11.2751 4.08666C8.8997 4.94445 6.86937 6.39707 5.44092 8.26083C4.01246 10.1246 3.25002 12.3158 3.25002 14.5573C3.25002 16.5916 3.86265 18.5424 5.01152 20.258L5.69727 21.2836L4.63615 24.685L8.53615 23.7571ZM0.00652174 28.724L2.20352 21.686C0.755871 19.5225 -0.00469728 17.0619 2.18274e-05 14.5573C2.18274e-05 6.73304 7.27515 0.390625 16.25 0.390625C25.2249 0.390625 32.5 6.73304 32.5 14.5573C32.5 22.3815 25.2249 28.724 16.25 28.724C13.3783 28.728 10.5571 28.0654 8.07627 26.8044L0.00652174 28.724ZM10.3854 7.91029C10.6031 7.89612 10.8225 7.89612 11.0403 7.90462C11.128 7.91029 11.2158 7.91879 11.3035 7.92729C11.5619 7.95279 11.8463 8.09021 11.9421 8.28004C12.4264 9.23771 12.8976 10.2025 13.3526 11.17C13.4534 11.3854 13.3933 11.6616 13.2015 11.9308C13.0696 12.1128 12.927 12.2887 12.7741 12.4578C12.5905 12.6632 12.1956 13.04 12.1956 13.04C12.1956 13.04 12.0348 13.2072 12.0965 13.4155C12.1193 13.4948 12.194 13.6095 12.2623 13.7059L12.3581 13.8405C12.7741 14.4454 13.3331 15.0588 14.0156 15.6368C14.2106 15.8011 14.4008 15.9697 14.6055 16.127C15.366 16.712 16.2273 17.1895 17.1568 17.5436L17.1649 17.5465C17.303 17.5989 17.3729 17.6272 17.5744 17.7023C17.6751 17.7391 17.7791 17.7717 17.8848 17.7958C17.9939 17.82 18.1089 17.8155 18.215 17.7827C18.3212 17.7499 18.4138 17.6904 18.4811 17.6116C19.6576 16.3692 19.7649 16.2885 19.7746 16.2885V16.2913C19.8564 16.2248 19.9535 16.1744 20.0594 16.1434C20.1654 16.1123 20.2777 16.1014 20.3889 16.1114C20.4864 16.117 20.5855 16.1326 20.6765 16.168C21.5394 16.5123 22.9515 17.0492 22.9515 17.0492L23.8973 17.419C24.0565 17.4855 24.2011 17.6428 24.206 17.7944C24.2125 17.8893 24.2223 18.0423 24.1849 18.3228C24.1329 18.6897 24.0061 19.1303 23.8794 19.3612C23.7926 19.5188 23.6774 19.6632 23.5381 19.789C23.3742 19.9391 23.1947 20.0757 23.0019 20.197C22.9352 20.2408 22.8675 20.2833 22.7988 20.3245C22.5967 20.4363 22.389 20.5403 22.1764 20.6362C21.758 20.8299 21.2959 20.9412 20.8228 20.962C20.5221 20.9762 20.2215 20.996 19.9193 20.9819C19.9063 20.9819 18.9963 20.8586 18.9963 20.8586C16.6859 20.3288 14.5493 19.3364 12.7563 17.9601C12.389 17.6782 12.0494 17.375 11.7016 17.0733C10.2554 15.8195 9.1634 14.4666 8.5004 13.1888C8.16105 12.5616 7.97774 11.8789 7.96252 11.1856C7.95582 10.3255 8.27834 9.48799 8.87902 8.80562C8.99765 8.67246 9.10977 8.53362 9.30315 8.37354C9.50952 8.20354 9.63952 8.11287 9.7809 8.05054C9.96887 7.96842 10.1739 7.92023 10.3838 7.90887L10.3854 7.91029Z" fill="white"/>
</svg>
