<svg width="61" height="55" viewBox="0 0 61 55" fill="none" xmlns="http://www.w3.org/2000/svg">
<g clip-path="url(#clip0_256_58)">
<rect width="61" height="55" rx="27.5" fill="#4E962C"/>
<path d="M18.0438 43.164L19.884 44.1334C22.9872 45.7652 26.5167 46.6219 30.1091 46.6152C34.1306 46.6152 38.0619 45.54 41.4057 43.5255C44.7495 41.511 47.3557 38.6477 48.8946 35.2978C50.4336 31.9478 50.8363 28.2616 50.0517 24.7052C49.2672 21.1489 47.3306 17.8822 44.4869 15.3183C41.6433 12.7543 38.0202 11.0082 34.0759 10.3008C30.1316 9.59344 26.0433 9.9565 22.3279 11.3441C18.6124 12.7317 15.4368 15.0815 13.2025 18.0964C10.9683 21.1113 9.77575 24.6559 9.77575 28.2819C9.77575 31.5727 10.734 34.7284 12.5309 37.5036L13.6035 39.1627L11.9438 44.665L18.0438 43.164ZM4.70258 51.1986L8.13892 39.8136C5.87464 36.3139 4.68504 32.3335 4.69242 28.2819C4.69242 15.625 16.0715 5.36523 30.1091 5.36523C44.1467 5.36523 55.5257 15.625 55.5257 28.2819C55.5257 40.9388 44.1467 51.1986 30.1091 51.1986C25.6174 51.2051 21.2048 50.1333 17.3245 48.0934L4.70258 51.1986ZM20.9362 17.5294C21.2768 17.5065 21.6199 17.5065 21.9605 17.5202C22.0977 17.5294 22.235 17.5432 22.3722 17.5569C22.7764 17.5982 23.2212 17.8204 23.3711 18.1275C24.1285 19.6767 24.8656 21.2373 25.5773 22.8025C25.7349 23.1509 25.6408 23.5977 25.3409 24.0331C25.1346 24.3276 24.9115 24.6121 24.6725 24.8856C24.3852 25.2179 23.7676 25.8275 23.7676 25.8275C23.7676 25.8275 23.516 26.0979 23.6126 26.4348C23.6482 26.5632 23.7651 26.7488 23.8718 26.9046L24.0218 27.1223C24.6725 28.1009 25.5468 29.0931 26.6143 30.0281C26.9193 30.294 27.2167 30.5667 27.5369 30.8211C28.7264 31.7675 30.0735 32.5398 31.5273 33.1127L31.54 33.1173C31.7561 33.2021 31.8654 33.2479 32.1805 33.3694C32.3381 33.429 32.5008 33.4817 32.666 33.5206C32.8367 33.5599 33.0165 33.5525 33.1826 33.4994C33.3486 33.4464 33.4935 33.3501 33.5988 33.2227C35.439 31.2129 35.6067 31.0823 35.622 31.0823V31.0869C35.7498 30.9794 35.9017 30.8978 36.0674 30.8476C36.2331 30.7974 36.4088 30.7798 36.5827 30.7959C36.7352 30.805 36.8902 30.8302 37.0326 30.8875C38.3822 31.4444 40.5909 32.3129 40.5909 32.3129L42.0702 32.9111C42.3192 33.0188 42.5455 33.2731 42.5531 33.5184C42.5632 33.6719 42.5785 33.9194 42.52 34.3731C42.4387 34.9667 42.2405 35.6794 42.0422 36.0529C41.9064 36.3079 41.7262 36.5415 41.5085 36.745C41.252 36.9878 40.9712 37.2088 40.6697 37.405C40.5654 37.4757 40.4595 37.5445 40.352 37.6113C40.0359 37.7921 39.7111 37.9603 39.3785 38.1154C38.7241 38.4288 38.0014 38.6088 37.2613 38.6425C36.7911 38.6654 36.3209 38.6975 35.8482 38.6746C35.8278 38.6746 34.4045 38.4752 34.4045 38.4752C30.7909 37.6182 27.4489 36.0128 24.6445 33.7865C24.0701 33.3304 23.5389 32.84 22.995 32.3519C20.7329 30.3238 19.0249 28.1352 17.9879 26.0681C17.4571 25.0536 17.1704 23.9493 17.1466 22.8277C17.1361 21.4364 17.6405 20.0816 18.5801 18.9777C18.7656 18.7623 18.941 18.5377 19.2435 18.2788C19.5662 18.0038 19.7696 17.8571 19.9907 17.7563C20.2847 17.6234 20.6054 17.5455 20.9337 17.5271L20.9362 17.5294Z" fill="white"/>
</g>
<rect x="0.5" y="0.5" width="60" height="54" rx="27" stroke="white"/>
<defs>
<clipPath id="clip0_256_58">
<rect width="61" height="55" rx="27.5" fill="white"/>
</clipPath>
</defs>
</svg>
